<svg xmlns="http://www.w3.org/2000/svg" width="24.002" height="16.53" viewBox="0 0 24.002 16.53">
  <g id="Group_4250" data-name="Group 4250" transform="translate(-3436.622 -2605.233)">
    <path id="Subtraction_2" data-name="Subtraction 2" d="M20225,21361.027a15,15,0,0,1-8.279-2.941,21.578,21.578,0,0,1-3.539-3.07.734.734,0,0,1,0-.969,21.091,21.091,0,0,1,6.678-4.861l1.338,2.141a5.155,5.155,0,0,0-1.117,3.2,5,5,0,0,0,4.922,5.055,4.7,4.7,0,0,0,1.254-.166l.877,1.4A11.4,11.4,0,0,1,20225,21361.027Zm4.143-.758v0l-1.1-1.764a5.081,5.081,0,0,0,1.883-3.975,5,5,0,0,0-4.922-5.057,4.8,4.8,0,0,0-2.254.563l-.965-1.543a11.955,11.955,0,0,1,3.219-.461,14.539,14.539,0,0,1,8.248,2.916,21.88,21.88,0,0,1,3.574,3.1.748.748,0,0,1,0,.967,20.681,20.681,0,0,1-7.68,5.256Zm-4.143-2.406a3.334,3.334,0,0,1-2.867-5.035l3.141,5.023C20225.174,21357.861,20225.074,21357.863,20225,21357.863Zm2.145-.793v0l-3.494-5.588a3.31,3.31,0,0,1,1.35-.287,3.259,3.259,0,0,1,1.5.381,1.994,1.994,0,0,0,1.141,3.617,2.035,2.035,0,0,0,.629-.1,3.349,3.349,0,0,1-1.127,1.977Z" transform="translate(-16776.375 -18741.031)" fill="#7b838f"/>
    <line id="Line_142" data-name="Line 142" x2="10" y2="16" transform="translate(3443 2605.498)" fill="none" stroke="#7b838f" stroke-width="1"/>
  </g>
</svg>
