<svg xmlns="http://www.w3.org/2000/svg" width="24" height="13" viewBox="0 0 24 13">
  <g id="eye" transform="translate(0 -121)">
    <g id="Group_2690" data-name="Group 2690" transform="translate(-0.001 121)">
      <g id="Group_2689" data-name="Group 2689" transform="translate(0 0)">
        <path id="Path_18637" data-name="Path 18637" d="M23.82,127.018C23.606,126.773,18.453,121,12,121S.393,126.773.179,127.018a.737.737,0,0,0,0,.963C.393,128.227,5.546,134,12,134s11.607-5.773,11.821-6.018A.737.737,0,0,0,23.82,127.018ZM12,132.556a5.057,5.057,0,0,1,0-10.111,5.057,5.057,0,0,1,0,10.111Z" transform="translate(0.001 -121)" fill="#7b838f"/>
      </g>
    </g>
    <g id="Group_2692" data-name="Group 2692" transform="translate(8.664 124.167)">
      <g id="Group_2691" data-name="Group 2691" transform="translate(0 0)">
        <path id="Path_18638" data-name="Path 18638" d="M185,183a1.994,1.994,0,0,1,.839-1.624,3.29,3.29,0,0,0-1.506-.376,3.333,3.333,0,1,0,3.277,3.9A1.988,1.988,0,0,1,185,183Z" transform="translate(-181 -181)" fill="#7b838f"/>
      </g>
    </g>
  </g>
</svg>
